<svg xmlns="http://www.w3.org/2000/svg" viewBox="0 0 256 256">
  <rect width="256" height="256" rx="32" fill="#1976D2"/>
  <path d="M200 96H176L160 64H96L80 96H56C44.9 96 36 104.9 36 116V164C36 170.6 41.4 176 48 176H56V188C56 194.6 61.4 200 68 200H84C90.6 200 96 194.6 96 188V176H160V188C160 194.6 165.4 200 172 200H188C194.6 200 200 194.6 200 188V176H208C214.6 176 220 170.6 220 164V116C220 104.9 211.1 96 200 96ZM96 64H160L172 88H84L96 64ZM80 148C73.4 148 68 142.6 68 136C68 129.4 73.4 124 80 124C86.6 124 92 129.4 92 136C92 142.6 86.6 148 80 148ZM176 148C169.4 148 164 142.6 164 136C164 129.4 169.4 124 176 124C182.6 124 188 129.4 188 136C188 142.6 182.6 148 176 148Z" fill="white"/>
  <circle cx="196" cy="60" r="28" fill="#4CAF50"/>
  <path d="M184 60L192 68L210 50" stroke="white" stroke-width="4" stroke-linecap="round" stroke-linejoin="round" fill="none"/>
</svg>
